<mxfile host="app.diagrams.net" modified="2024-01-16T09:46:14.820Z" agent="Mozilla/5.0 (Windows NT 10.0; Win64; x64) AppleWebKit/537.36 (KHTML, like Gecko) Chrome/119.0.0.0 Safari/537.36" etag="U0Kcyn6Qx5AhkaUOeKuI" version="22.1.17" type="github">
  <diagram name="第 1 页" id="SPCY4sjMRmm0NcjuiNyU">
    <mxGraphModel dx="1050" dy="557" grid="1" gridSize="10" guides="1" tooltips="1" connect="1" arrows="1" fold="1" page="1" pageScale="1" pageWidth="827" pageHeight="1169" math="0" shadow="0">
      <root>
        <mxCell id="0" />
        <mxCell id="1" parent="0" />
        <mxCell id="0-277O36P96OIKh_NpkG-1" value="肝精" style="ellipse;whiteSpace=wrap;html=1;fontSize=15;" parent="1" vertex="1">
          <mxGeometry x="140" y="240" width="80" height="50" as="geometry" />
        </mxCell>
        <mxCell id="AbgtmwVt9UdKqXQrlQnO-2" value="化生胆汁" style="ellipse;whiteSpace=wrap;html=1;fontSize=14;" vertex="1" parent="1">
          <mxGeometry x="400" y="80" width="80" height="50" as="geometry" />
        </mxCell>
        <mxCell id="AbgtmwVt9UdKqXQrlQnO-8" value="" style="group" vertex="1" connectable="0" parent="1">
          <mxGeometry x="414" y="140" width="120" height="40" as="geometry" />
        </mxCell>
        <mxCell id="AbgtmwVt9UdKqXQrlQnO-9" value="化泪濡目" style="ellipse;whiteSpace=wrap;html=1;fontSize=13;" vertex="1" parent="AbgtmwVt9UdKqXQrlQnO-8">
          <mxGeometry x="-20" width="96" height="40" as="geometry" />
        </mxCell>
        <mxCell id="AbgtmwVt9UdKqXQrlQnO-10" value="" style="endArrow=classic;html=1;rounded=0;exitX=1;exitY=0.5;exitDx=0;exitDy=0;" edge="1" parent="AbgtmwVt9UdKqXQrlQnO-8" source="AbgtmwVt9UdKqXQrlQnO-9" target="AbgtmwVt9UdKqXQrlQnO-11">
          <mxGeometry width="50" height="50" relative="1" as="geometry">
            <mxPoint x="127" y="21" as="sourcePoint" />
            <mxPoint x="272" y="20" as="targetPoint" />
          </mxGeometry>
        </mxCell>
        <mxCell id="AbgtmwVt9UdKqXQrlQnO-11" value="能视" style="text;html=1;strokeColor=#d79b00;fillColor=#ffe6cc;align=center;verticalAlign=middle;whiteSpace=wrap;rounded=0;" vertex="1" parent="AbgtmwVt9UdKqXQrlQnO-8">
          <mxGeometry x="60" y="5" width="60" height="30" as="geometry" />
        </mxCell>
        <mxCell id="AbgtmwVt9UdKqXQrlQnO-12" value="" style="group" vertex="1" connectable="0" parent="1">
          <mxGeometry x="414" y="200" width="120" height="40" as="geometry" />
        </mxCell>
        <mxCell id="AbgtmwVt9UdKqXQrlQnO-13" value="濡养盘爪" style="ellipse;whiteSpace=wrap;html=1;fontSize=13;" vertex="1" parent="AbgtmwVt9UdKqXQrlQnO-12">
          <mxGeometry x="-20" width="96" height="40" as="geometry" />
        </mxCell>
        <mxCell id="AbgtmwVt9UdKqXQrlQnO-14" value="" style="endArrow=classic;html=1;rounded=0;exitX=1;exitY=0.5;exitDx=0;exitDy=0;" edge="1" parent="AbgtmwVt9UdKqXQrlQnO-12" source="AbgtmwVt9UdKqXQrlQnO-13" target="AbgtmwVt9UdKqXQrlQnO-15">
          <mxGeometry width="50" height="50" relative="1" as="geometry">
            <mxPoint x="127" y="21" as="sourcePoint" />
            <mxPoint x="272" y="20" as="targetPoint" />
          </mxGeometry>
        </mxCell>
        <mxCell id="AbgtmwVt9UdKqXQrlQnO-15" value="耐劳" style="text;html=1;strokeColor=#d79b00;fillColor=#ffe6cc;align=center;verticalAlign=middle;whiteSpace=wrap;rounded=0;" vertex="1" parent="AbgtmwVt9UdKqXQrlQnO-12">
          <mxGeometry x="60" y="5" width="60" height="30" as="geometry" />
        </mxCell>
        <mxCell id="AbgtmwVt9UdKqXQrlQnO-17" value="" style="endArrow=classic;html=1;rounded=0;entryX=0;entryY=0.5;entryDx=0;entryDy=0;exitX=1;exitY=0.5;exitDx=0;exitDy=0;" edge="1" parent="1" source="0-277O36P96OIKh_NpkG-1" target="AbgtmwVt9UdKqXQrlQnO-2">
          <mxGeometry width="50" height="50" relative="1" as="geometry">
            <mxPoint x="300" y="180" as="sourcePoint" />
            <mxPoint x="350" y="130" as="targetPoint" />
          </mxGeometry>
        </mxCell>
        <mxCell id="AbgtmwVt9UdKqXQrlQnO-18" value="" style="endArrow=classic;html=1;rounded=0;entryX=0;entryY=0.5;entryDx=0;entryDy=0;exitX=1;exitY=0.5;exitDx=0;exitDy=0;" edge="1" parent="1" source="0-277O36P96OIKh_NpkG-1" target="AbgtmwVt9UdKqXQrlQnO-9">
          <mxGeometry width="50" height="50" relative="1" as="geometry">
            <mxPoint x="220" y="370" as="sourcePoint" />
            <mxPoint x="270" y="320" as="targetPoint" />
          </mxGeometry>
        </mxCell>
        <mxCell id="AbgtmwVt9UdKqXQrlQnO-19" value="" style="endArrow=classic;html=1;rounded=0;entryX=0;entryY=0.5;entryDx=0;entryDy=0;exitX=1;exitY=0.5;exitDx=0;exitDy=0;" edge="1" parent="1" source="0-277O36P96OIKh_NpkG-1" target="AbgtmwVt9UdKqXQrlQnO-13">
          <mxGeometry width="50" height="50" relative="1" as="geometry">
            <mxPoint x="270" y="410" as="sourcePoint" />
            <mxPoint x="320" y="360" as="targetPoint" />
          </mxGeometry>
        </mxCell>
        <mxCell id="AbgtmwVt9UdKqXQrlQnO-24" value="" style="group" vertex="1" connectable="0" parent="1">
          <mxGeometry x="394" y="260" width="160" height="50" as="geometry" />
        </mxCell>
        <mxCell id="AbgtmwVt9UdKqXQrlQnO-25" value="化生魂、养魂" style="ellipse;whiteSpace=wrap;html=1;fontSize=13;align=left;" vertex="1" parent="AbgtmwVt9UdKqXQrlQnO-24">
          <mxGeometry width="101.33333333333333" height="50" as="geometry" />
        </mxCell>
        <mxCell id="AbgtmwVt9UdKqXQrlQnO-26" value="" style="endArrow=classic;html=1;rounded=0;exitX=1;exitY=0.5;exitDx=0;exitDy=0;" edge="1" parent="AbgtmwVt9UdKqXQrlQnO-24" source="AbgtmwVt9UdKqXQrlQnO-25" target="AbgtmwVt9UdKqXQrlQnO-27">
          <mxGeometry width="50" height="50" relative="1" as="geometry">
            <mxPoint x="169.33333333333331" y="26.25" as="sourcePoint" />
            <mxPoint x="362.66666666666663" y="25" as="targetPoint" />
          </mxGeometry>
        </mxCell>
        <mxCell id="AbgtmwVt9UdKqXQrlQnO-27" value="舍于肝" style="text;html=1;strokeColor=#d79b00;fillColor=#ffe6cc;align=center;verticalAlign=middle;whiteSpace=wrap;rounded=0;" vertex="1" parent="AbgtmwVt9UdKqXQrlQnO-24">
          <mxGeometry x="80" y="6.25" width="80" height="37.5" as="geometry" />
        </mxCell>
        <mxCell id="AbgtmwVt9UdKqXQrlQnO-28" value="" style="group" vertex="1" connectable="0" parent="1">
          <mxGeometry x="394" y="330" width="160" height="50" as="geometry" />
        </mxCell>
        <mxCell id="AbgtmwVt9UdKqXQrlQnO-29" value="化生和滋养努" style="ellipse;whiteSpace=wrap;html=1;fontSize=13;align=left;" vertex="1" parent="AbgtmwVt9UdKqXQrlQnO-28">
          <mxGeometry width="101.33333333333333" height="50" as="geometry" />
        </mxCell>
        <mxCell id="AbgtmwVt9UdKqXQrlQnO-30" value="" style="endArrow=classic;html=1;rounded=0;exitX=1;exitY=0.5;exitDx=0;exitDy=0;" edge="1" parent="AbgtmwVt9UdKqXQrlQnO-28" source="AbgtmwVt9UdKqXQrlQnO-29" target="AbgtmwVt9UdKqXQrlQnO-31">
          <mxGeometry width="50" height="50" relative="1" as="geometry">
            <mxPoint x="169.33333333333331" y="26.25" as="sourcePoint" />
            <mxPoint x="362.66666666666663" y="25" as="targetPoint" />
          </mxGeometry>
        </mxCell>
        <mxCell id="AbgtmwVt9UdKqXQrlQnO-31" value="敛而不化" style="text;html=1;strokeColor=#d79b00;fillColor=#ffe6cc;align=center;verticalAlign=middle;whiteSpace=wrap;rounded=0;" vertex="1" parent="AbgtmwVt9UdKqXQrlQnO-28">
          <mxGeometry x="80" y="6.25" width="80" height="37.5" as="geometry" />
        </mxCell>
        <mxCell id="AbgtmwVt9UdKqXQrlQnO-32" value="" style="endArrow=classic;html=1;rounded=0;entryX=0;entryY=0.5;entryDx=0;entryDy=0;exitX=1;exitY=0.5;exitDx=0;exitDy=0;" edge="1" parent="1" source="0-277O36P96OIKh_NpkG-1" target="AbgtmwVt9UdKqXQrlQnO-29">
          <mxGeometry width="50" height="50" relative="1" as="geometry">
            <mxPoint x="60" y="460" as="sourcePoint" />
            <mxPoint x="110" y="410" as="targetPoint" />
          </mxGeometry>
        </mxCell>
        <mxCell id="AbgtmwVt9UdKqXQrlQnO-33" value="" style="endArrow=classic;html=1;rounded=0;entryX=0;entryY=0.5;entryDx=0;entryDy=0;exitX=1;exitY=0.5;exitDx=0;exitDy=0;" edge="1" parent="1" source="0-277O36P96OIKh_NpkG-1" target="AbgtmwVt9UdKqXQrlQnO-25">
          <mxGeometry width="50" height="50" relative="1" as="geometry">
            <mxPoint x="80" y="400" as="sourcePoint" />
            <mxPoint x="130" y="350" as="targetPoint" />
          </mxGeometry>
        </mxCell>
      </root>
    </mxGraphModel>
  </diagram>
</mxfile>
